<?xml version="1.0" encoding="utf-8" standalone="no"?>
<!DOCTYPE svg PUBLIC "-//W3C//DTD SVG 1.1//EN"
  "http://www.w3.org/Graphics/SVG/1.1/DTD/svg11.dtd">
<svg xmlns:xlink="http://www.w3.org/1999/xlink" width="720pt" height="360pt" viewBox="0 0 720 360" xmlns="http://www.w3.org/2000/svg" version="1.1">
 <metadata>
  <rdf:RDF xmlns:dc="http://purl.org/dc/elements/1.1/" xmlns:cc="http://creativecommons.org/ns#" xmlns:rdf="http://www.w3.org/1999/02/22-rdf-syntax-ns#">
   <cc:Work>
    <dc:type rdf:resource="http://purl.org/dc/dcmitype/StillImage"/>
    <dc:date>2024-06-29T14:59:37.371525</dc:date>
    <dc:format>image/svg+xml</dc:format>
    <dc:creator>
     <cc:Agent>
      <dc:title>Matplotlib v3.6.2, https://matplotlib.org/</dc:title>
     </cc:Agent>
    </dc:creator>
   </cc:Work>
  </rdf:RDF>
 </metadata>
 <defs>
  <style type="text/css">*{stroke-linejoin: round; stroke-linecap: butt}</style>
 </defs>
 <g id="figure_1">
  <g id="patch_1">
   <path d="M 0 360 
L 720 360 
L 720 0 
L 0 0 
z
" style="fill: #ffffff"/>
  </g>
  <g id="axes_1">
   <g id="patch_2">
    <path d="M 90 320.4 
L 343.636364 320.4 
L 343.636364 43.2 
L 90 43.2 
z
" style="fill: #ffffff"/>
   </g>
   <g id="matplotlib.axis_1">
    <g id="xtick_1">
     <g id="line2d_1">
      <path d="M 150.07177 320.4 
L 150.07177 43.2 
" clip-path="url(#pa0bf6ddba8)" style="fill: none; stroke: #b0b0b0; stroke-width: 0.8; stroke-linecap: square"/>
     </g>
     <g id="line2d_2">
      <defs>
       <path id="m20875f28c6" d="M 0 0 
L 0 3.5 
" style="stroke: #000000; stroke-width: 0.8"/>
      </defs>
      <g>
       <use xlink:href="#m20875f28c6" x="150.07177" y="320.4" style="stroke: #000000; stroke-width: 0.8"/>
      </g>
     </g>
     <g id="text_1">
      <!-- 5 -->
      <g transform="translate(146.89052 334.998438) scale(0.1 -0.1)">
       <defs>
        <path id="DejaVuSans-35" d="M 691 4666 
L 3169 4666 
L 3169 4134 
L 1269 4134 
L 1269 2991 
Q 1406 3038 1543 3061 
Q 1681 3084 1819 3084 
Q 2600 3084 3056 2656 
Q 3513 2228 3513 1497 
Q 3513 744 3044 326 
Q 2575 -91 1722 -91 
Q 1428 -91 1123 -41 
Q 819 9 494 109 
L 494 744 
Q 775 591 1075 516 
Q 1375 441 1709 441 
Q 2250 441 2565 725 
Q 2881 1009 2881 1497 
Q 2881 1984 2565 2268 
Q 2250 2553 1709 2553 
Q 1456 2553 1204 2497 
Q 953 2441 691 2322 
L 691 4666 
z
" transform="scale(0.015625)"/>
       </defs>
       <use xlink:href="#DejaVuSans-35"/>
      </g>
     </g>
    </g>
    <g id="xtick_2">
     <g id="line2d_3">
      <path d="M 210.750326 320.4 
L 210.750326 43.2 
" clip-path="url(#pa0bf6ddba8)" style="fill: none; stroke: #b0b0b0; stroke-width: 0.8; stroke-linecap: square"/>
     </g>
     <g id="line2d_4">
      <g>
       <use xlink:href="#m20875f28c6" x="210.750326" y="320.4" style="stroke: #000000; stroke-width: 0.8"/>
      </g>
     </g>
     <g id="text_2">
      <!-- 10 -->
      <g transform="translate(204.387826 334.998438) scale(0.1 -0.1)">
       <defs>
        <path id="DejaVuSans-31" d="M 794 531 
L 1825 531 
L 1825 4091 
L 703 3866 
L 703 4441 
L 1819 4666 
L 2450 4666 
L 2450 531 
L 3481 531 
L 3481 0 
L 794 0 
L 794 531 
z
" transform="scale(0.015625)"/>
        <path id="DejaVuSans-30" d="M 2034 4250 
Q 1547 4250 1301 3770 
Q 1056 3291 1056 2328 
Q 1056 1369 1301 889 
Q 1547 409 2034 409 
Q 2525 409 2770 889 
Q 3016 1369 3016 2328 
Q 3016 3291 2770 3770 
Q 2525 4250 2034 4250 
z
M 2034 4750 
Q 2819 4750 3233 4129 
Q 3647 3509 3647 2328 
Q 3647 1150 3233 529 
Q 2819 -91 2034 -91 
Q 1250 -91 836 529 
Q 422 1150 422 2328 
Q 422 3509 836 4129 
Q 1250 4750 2034 4750 
z
" transform="scale(0.015625)"/>
       </defs>
       <use xlink:href="#DejaVuSans-31"/>
       <use xlink:href="#DejaVuSans-30" x="63.623047"/>
      </g>
     </g>
    </g>
    <g id="xtick_3">
     <g id="line2d_5">
      <path d="M 271.428882 320.4 
L 271.428882 43.2 
" clip-path="url(#pa0bf6ddba8)" style="fill: none; stroke: #b0b0b0; stroke-width: 0.8; stroke-linecap: square"/>
     </g>
     <g id="line2d_6">
      <g>
       <use xlink:href="#m20875f28c6" x="271.428882" y="320.4" style="stroke: #000000; stroke-width: 0.8"/>
      </g>
     </g>
     <g id="text_3">
      <!-- 15 -->
      <g transform="translate(265.066382 334.998438) scale(0.1 -0.1)">
       <use xlink:href="#DejaVuSans-31"/>
       <use xlink:href="#DejaVuSans-35" x="63.623047"/>
      </g>
     </g>
    </g>
    <g id="xtick_4">
     <g id="line2d_7">
      <path d="M 332.107438 320.4 
L 332.107438 43.2 
" clip-path="url(#pa0bf6ddba8)" style="fill: none; stroke: #b0b0b0; stroke-width: 0.8; stroke-linecap: square"/>
     </g>
     <g id="line2d_8">
      <g>
       <use xlink:href="#m20875f28c6" x="332.107438" y="320.4" style="stroke: #000000; stroke-width: 0.8"/>
      </g>
     </g>
     <g id="text_4">
      <!-- 20 -->
      <g transform="translate(325.744938 334.998438) scale(0.1 -0.1)">
       <defs>
        <path id="DejaVuSans-32" d="M 1228 531 
L 3431 531 
L 3431 0 
L 469 0 
L 469 531 
Q 828 903 1448 1529 
Q 2069 2156 2228 2338 
Q 2531 2678 2651 2914 
Q 2772 3150 2772 3378 
Q 2772 3750 2511 3984 
Q 2250 4219 1831 4219 
Q 1534 4219 1204 4116 
Q 875 4013 500 3803 
L 500 4441 
Q 881 4594 1212 4672 
Q 1544 4750 1819 4750 
Q 2544 4750 2975 4387 
Q 3406 4025 3406 3419 
Q 3406 3131 3298 2873 
Q 3191 2616 2906 2266 
Q 2828 2175 2409 1742 
Q 1991 1309 1228 531 
z
" transform="scale(0.015625)"/>
       </defs>
       <use xlink:href="#DejaVuSans-32"/>
       <use xlink:href="#DejaVuSans-30" x="63.623047"/>
      </g>
     </g>
    </g>
    <g id="text_5">
     <!-- Epoch -->
     <g transform="translate(201.507244 348.676562) scale(0.1 -0.1)">
      <defs>
       <path id="DejaVuSans-45" d="M 628 4666 
L 3578 4666 
L 3578 4134 
L 1259 4134 
L 1259 2753 
L 3481 2753 
L 3481 2222 
L 1259 2222 
L 1259 531 
L 3634 531 
L 3634 0 
L 628 0 
L 628 4666 
z
" transform="scale(0.015625)"/>
       <path id="DejaVuSans-70" d="M 1159 525 
L 1159 -1331 
L 581 -1331 
L 581 3500 
L 1159 3500 
L 1159 2969 
Q 1341 3281 1617 3432 
Q 1894 3584 2278 3584 
Q 2916 3584 3314 3078 
Q 3713 2572 3713 1747 
Q 3713 922 3314 415 
Q 2916 -91 2278 -91 
Q 1894 -91 1617 61 
Q 1341 213 1159 525 
z
M 3116 1747 
Q 3116 2381 2855 2742 
Q 2594 3103 2138 3103 
Q 1681 3103 1420 2742 
Q 1159 2381 1159 1747 
Q 1159 1113 1420 752 
Q 1681 391 2138 391 
Q 2594 391 2855 752 
Q 3116 1113 3116 1747 
z
" transform="scale(0.015625)"/>
       <path id="DejaVuSans-6f" d="M 1959 3097 
Q 1497 3097 1228 2736 
Q 959 2375 959 1747 
Q 959 1119 1226 758 
Q 1494 397 1959 397 
Q 2419 397 2687 759 
Q 2956 1122 2956 1747 
Q 2956 2369 2687 2733 
Q 2419 3097 1959 3097 
z
M 1959 3584 
Q 2709 3584 3137 3096 
Q 3566 2609 3566 1747 
Q 3566 888 3137 398 
Q 2709 -91 1959 -91 
Q 1206 -91 779 398 
Q 353 888 353 1747 
Q 353 2609 779 3096 
Q 1206 3584 1959 3584 
z
" transform="scale(0.015625)"/>
       <path id="DejaVuSans-63" d="M 3122 3366 
L 3122 2828 
Q 2878 2963 2633 3030 
Q 2388 3097 2138 3097 
Q 1578 3097 1268 2742 
Q 959 2388 959 1747 
Q 959 1106 1268 751 
Q 1578 397 2138 397 
Q 2388 397 2633 464 
Q 2878 531 3122 666 
L 3122 134 
Q 2881 22 2623 -34 
Q 2366 -91 2075 -91 
Q 1284 -91 818 406 
Q 353 903 353 1747 
Q 353 2603 823 3093 
Q 1294 3584 2113 3584 
Q 2378 3584 2631 3529 
Q 2884 3475 3122 3366 
z
" transform="scale(0.015625)"/>
       <path id="DejaVuSans-68" d="M 3513 2113 
L 3513 0 
L 2938 0 
L 2938 2094 
Q 2938 2591 2744 2837 
Q 2550 3084 2163 3084 
Q 1697 3084 1428 2787 
Q 1159 2491 1159 1978 
L 1159 0 
L 581 0 
L 581 4863 
L 1159 4863 
L 1159 2956 
Q 1366 3272 1645 3428 
Q 1925 3584 2291 3584 
Q 2894 3584 3203 3211 
Q 3513 2838 3513 2113 
z
" transform="scale(0.015625)"/>
      </defs>
      <use xlink:href="#DejaVuSans-45"/>
      <use xlink:href="#DejaVuSans-70" x="63.183594"/>
      <use xlink:href="#DejaVuSans-6f" x="126.660156"/>
      <use xlink:href="#DejaVuSans-63" x="187.841797"/>
      <use xlink:href="#DejaVuSans-68" x="242.822266"/>
     </g>
    </g>
   </g>
   <g id="matplotlib.axis_2">
    <g id="ytick_1">
     <g id="line2d_9">
      <path d="M 90 309.417447 
L 343.636364 309.417447 
" clip-path="url(#pa0bf6ddba8)" style="fill: none; stroke: #b0b0b0; stroke-width: 0.8; stroke-linecap: square"/>
     </g>
     <g id="line2d_10">
      <defs>
       <path id="m687b050b9e" d="M 0 0 
L -3.5 0 
" style="stroke: #000000; stroke-width: 0.8"/>
      </defs>
      <g>
       <use xlink:href="#m687b050b9e" x="90" y="309.417447" style="stroke: #000000; stroke-width: 0.8"/>
      </g>
     </g>
     <g id="text_6">
      <!-- 0.01 -->
      <g transform="translate(60.734375 313.216665) scale(0.1 -0.1)">
       <defs>
        <path id="DejaVuSans-2e" d="M 684 794 
L 1344 794 
L 1344 0 
L 684 0 
L 684 794 
z
" transform="scale(0.015625)"/>
       </defs>
       <use xlink:href="#DejaVuSans-30"/>
       <use xlink:href="#DejaVuSans-2e" x="63.623047"/>
       <use xlink:href="#DejaVuSans-30" x="95.410156"/>
       <use xlink:href="#DejaVuSans-31" x="159.033203"/>
      </g>
     </g>
    </g>
    <g id="ytick_2">
     <g id="line2d_11">
      <path d="M 90 274.637629 
L 343.636364 274.637629 
" clip-path="url(#pa0bf6ddba8)" style="fill: none; stroke: #b0b0b0; stroke-width: 0.8; stroke-linecap: square"/>
     </g>
     <g id="line2d_12">
      <g>
       <use xlink:href="#m687b050b9e" x="90" y="274.637629" style="stroke: #000000; stroke-width: 0.8"/>
      </g>
     </g>
     <g id="text_7">
      <!-- 0.02 -->
      <g transform="translate(60.734375 278.436847) scale(0.1 -0.1)">
       <use xlink:href="#DejaVuSans-30"/>
       <use xlink:href="#DejaVuSans-2e" x="63.623047"/>
       <use xlink:href="#DejaVuSans-30" x="95.410156"/>
       <use xlink:href="#DejaVuSans-32" x="159.033203"/>
      </g>
     </g>
    </g>
    <g id="ytick_3">
     <g id="line2d_13">
      <path d="M 90 239.857811 
L 343.636364 239.857811 
" clip-path="url(#pa0bf6ddba8)" style="fill: none; stroke: #b0b0b0; stroke-width: 0.8; stroke-linecap: square"/>
     </g>
     <g id="line2d_14">
      <g>
       <use xlink:href="#m687b050b9e" x="90" y="239.857811" style="stroke: #000000; stroke-width: 0.8"/>
      </g>
     </g>
     <g id="text_8">
      <!-- 0.03 -->
      <g transform="translate(60.734375 243.657029) scale(0.1 -0.1)">
       <defs>
        <path id="DejaVuSans-33" d="M 2597 2516 
Q 3050 2419 3304 2112 
Q 3559 1806 3559 1356 
Q 3559 666 3084 287 
Q 2609 -91 1734 -91 
Q 1441 -91 1130 -33 
Q 819 25 488 141 
L 488 750 
Q 750 597 1062 519 
Q 1375 441 1716 441 
Q 2309 441 2620 675 
Q 2931 909 2931 1356 
Q 2931 1769 2642 2001 
Q 2353 2234 1838 2234 
L 1294 2234 
L 1294 2753 
L 1863 2753 
Q 2328 2753 2575 2939 
Q 2822 3125 2822 3475 
Q 2822 3834 2567 4026 
Q 2313 4219 1838 4219 
Q 1578 4219 1281 4162 
Q 984 4106 628 3988 
L 628 4550 
Q 988 4650 1302 4700 
Q 1616 4750 1894 4750 
Q 2613 4750 3031 4423 
Q 3450 4097 3450 3541 
Q 3450 3153 3228 2886 
Q 3006 2619 2597 2516 
z
" transform="scale(0.015625)"/>
       </defs>
       <use xlink:href="#DejaVuSans-30"/>
       <use xlink:href="#DejaVuSans-2e" x="63.623047"/>
       <use xlink:href="#DejaVuSans-30" x="95.410156"/>
       <use xlink:href="#DejaVuSans-33" x="159.033203"/>
      </g>
     </g>
    </g>
    <g id="ytick_4">
     <g id="line2d_15">
      <path d="M 90 205.077993 
L 343.636364 205.077993 
" clip-path="url(#pa0bf6ddba8)" style="fill: none; stroke: #b0b0b0; stroke-width: 0.8; stroke-linecap: square"/>
     </g>
     <g id="line2d_16">
      <g>
       <use xlink:href="#m687b050b9e" x="90" y="205.077993" style="stroke: #000000; stroke-width: 0.8"/>
      </g>
     </g>
     <g id="text_9">
      <!-- 0.04 -->
      <g transform="translate(60.734375 208.877211) scale(0.1 -0.1)">
       <defs>
        <path id="DejaVuSans-34" d="M 2419 4116 
L 825 1625 
L 2419 1625 
L 2419 4116 
z
M 2253 4666 
L 3047 4666 
L 3047 1625 
L 3713 1625 
L 3713 1100 
L 3047 1100 
L 3047 0 
L 2419 0 
L 2419 1100 
L 313 1100 
L 313 1709 
L 2253 4666 
z
" transform="scale(0.015625)"/>
       </defs>
       <use xlink:href="#DejaVuSans-30"/>
       <use xlink:href="#DejaVuSans-2e" x="63.623047"/>
       <use xlink:href="#DejaVuSans-30" x="95.410156"/>
       <use xlink:href="#DejaVuSans-34" x="159.033203"/>
      </g>
     </g>
    </g>
    <g id="ytick_5">
     <g id="line2d_17">
      <path d="M 90 170.298175 
L 343.636364 170.298175 
" clip-path="url(#pa0bf6ddba8)" style="fill: none; stroke: #b0b0b0; stroke-width: 0.8; stroke-linecap: square"/>
     </g>
     <g id="line2d_18">
      <g>
       <use xlink:href="#m687b050b9e" x="90" y="170.298175" style="stroke: #000000; stroke-width: 0.8"/>
      </g>
     </g>
     <g id="text_10">
      <!-- 0.05 -->
      <g transform="translate(60.734375 174.097394) scale(0.1 -0.1)">
       <use xlink:href="#DejaVuSans-30"/>
       <use xlink:href="#DejaVuSans-2e" x="63.623047"/>
       <use xlink:href="#DejaVuSans-30" x="95.410156"/>
       <use xlink:href="#DejaVuSans-35" x="159.033203"/>
      </g>
     </g>
    </g>
    <g id="ytick_6">
     <g id="line2d_19">
      <path d="M 90 135.518357 
L 343.636364 135.518357 
" clip-path="url(#pa0bf6ddba8)" style="fill: none; stroke: #b0b0b0; stroke-width: 0.8; stroke-linecap: square"/>
     </g>
     <g id="line2d_20">
      <g>
       <use xlink:href="#m687b050b9e" x="90" y="135.518357" style="stroke: #000000; stroke-width: 0.8"/>
      </g>
     </g>
     <g id="text_11">
      <!-- 0.06 -->
      <g transform="translate(60.734375 139.317576) scale(0.1 -0.1)">
       <defs>
        <path id="DejaVuSans-36" d="M 2113 2584 
Q 1688 2584 1439 2293 
Q 1191 2003 1191 1497 
Q 1191 994 1439 701 
Q 1688 409 2113 409 
Q 2538 409 2786 701 
Q 3034 994 3034 1497 
Q 3034 2003 2786 2293 
Q 2538 2584 2113 2584 
z
M 3366 4563 
L 3366 3988 
Q 3128 4100 2886 4159 
Q 2644 4219 2406 4219 
Q 1781 4219 1451 3797 
Q 1122 3375 1075 2522 
Q 1259 2794 1537 2939 
Q 1816 3084 2150 3084 
Q 2853 3084 3261 2657 
Q 3669 2231 3669 1497 
Q 3669 778 3244 343 
Q 2819 -91 2113 -91 
Q 1303 -91 875 529 
Q 447 1150 447 2328 
Q 447 3434 972 4092 
Q 1497 4750 2381 4750 
Q 2619 4750 2861 4703 
Q 3103 4656 3366 4563 
z
" transform="scale(0.015625)"/>
       </defs>
       <use xlink:href="#DejaVuSans-30"/>
       <use xlink:href="#DejaVuSans-2e" x="63.623047"/>
       <use xlink:href="#DejaVuSans-30" x="95.410156"/>
       <use xlink:href="#DejaVuSans-36" x="159.033203"/>
      </g>
     </g>
    </g>
    <g id="ytick_7">
     <g id="line2d_21">
      <path d="M 90 100.738539 
L 343.636364 100.738539 
" clip-path="url(#pa0bf6ddba8)" style="fill: none; stroke: #b0b0b0; stroke-width: 0.8; stroke-linecap: square"/>
     </g>
     <g id="line2d_22">
      <g>
       <use xlink:href="#m687b050b9e" x="90" y="100.738539" style="stroke: #000000; stroke-width: 0.8"/>
      </g>
     </g>
     <g id="text_12">
      <!-- 0.07 -->
      <g transform="translate(60.734375 104.537758) scale(0.1 -0.1)">
       <defs>
        <path id="DejaVuSans-37" d="M 525 4666 
L 3525 4666 
L 3525 4397 
L 1831 0 
L 1172 0 
L 2766 4134 
L 525 4134 
L 525 4666 
z
" transform="scale(0.015625)"/>
       </defs>
       <use xlink:href="#DejaVuSans-30"/>
       <use xlink:href="#DejaVuSans-2e" x="63.623047"/>
       <use xlink:href="#DejaVuSans-30" x="95.410156"/>
       <use xlink:href="#DejaVuSans-37" x="159.033203"/>
      </g>
     </g>
    </g>
    <g id="ytick_8">
     <g id="line2d_23">
      <path d="M 90 65.958721 
L 343.636364 65.958721 
" clip-path="url(#pa0bf6ddba8)" style="fill: none; stroke: #b0b0b0; stroke-width: 0.8; stroke-linecap: square"/>
     </g>
     <g id="line2d_24">
      <g>
       <use xlink:href="#m687b050b9e" x="90" y="65.958721" style="stroke: #000000; stroke-width: 0.8"/>
      </g>
     </g>
     <g id="text_13">
      <!-- 0.08 -->
      <g transform="translate(60.734375 69.75794) scale(0.1 -0.1)">
       <defs>
        <path id="DejaVuSans-38" d="M 2034 2216 
Q 1584 2216 1326 1975 
Q 1069 1734 1069 1313 
Q 1069 891 1326 650 
Q 1584 409 2034 409 
Q 2484 409 2743 651 
Q 3003 894 3003 1313 
Q 3003 1734 2745 1975 
Q 2488 2216 2034 2216 
z
M 1403 2484 
Q 997 2584 770 2862 
Q 544 3141 544 3541 
Q 544 4100 942 4425 
Q 1341 4750 2034 4750 
Q 2731 4750 3128 4425 
Q 3525 4100 3525 3541 
Q 3525 3141 3298 2862 
Q 3072 2584 2669 2484 
Q 3125 2378 3379 2068 
Q 3634 1759 3634 1313 
Q 3634 634 3220 271 
Q 2806 -91 2034 -91 
Q 1263 -91 848 271 
Q 434 634 434 1313 
Q 434 1759 690 2068 
Q 947 2378 1403 2484 
z
M 1172 3481 
Q 1172 3119 1398 2916 
Q 1625 2713 2034 2713 
Q 2441 2713 2670 2916 
Q 2900 3119 2900 3481 
Q 2900 3844 2670 4047 
Q 2441 4250 2034 4250 
Q 1625 4250 1398 4047 
Q 1172 3844 1172 3481 
z
" transform="scale(0.015625)"/>
       </defs>
       <use xlink:href="#DejaVuSans-30"/>
       <use xlink:href="#DejaVuSans-2e" x="63.623047"/>
       <use xlink:href="#DejaVuSans-30" x="95.410156"/>
       <use xlink:href="#DejaVuSans-38" x="159.033203"/>
      </g>
     </g>
    </g>
    <g id="text_14">
     <!-- test Loss -->
     <g transform="translate(54.654687 203.957812) rotate(-90) scale(0.1 -0.1)">
      <defs>
       <path id="DejaVuSans-74" d="M 1172 4494 
L 1172 3500 
L 2356 3500 
L 2356 3053 
L 1172 3053 
L 1172 1153 
Q 1172 725 1289 603 
Q 1406 481 1766 481 
L 2356 481 
L 2356 0 
L 1766 0 
Q 1100 0 847 248 
Q 594 497 594 1153 
L 594 3053 
L 172 3053 
L 172 3500 
L 594 3500 
L 594 4494 
L 1172 4494 
z
" transform="scale(0.015625)"/>
       <path id="DejaVuSans-65" d="M 3597 1894 
L 3597 1613 
L 953 1613 
Q 991 1019 1311 708 
Q 1631 397 2203 397 
Q 2534 397 2845 478 
Q 3156 559 3463 722 
L 3463 178 
Q 3153 47 2828 -22 
Q 2503 -91 2169 -91 
Q 1331 -91 842 396 
Q 353 884 353 1716 
Q 353 2575 817 3079 
Q 1281 3584 2069 3584 
Q 2775 3584 3186 3129 
Q 3597 2675 3597 1894 
z
M 3022 2063 
Q 3016 2534 2758 2815 
Q 2500 3097 2075 3097 
Q 1594 3097 1305 2825 
Q 1016 2553 972 2059 
L 3022 2063 
z
" transform="scale(0.015625)"/>
       <path id="DejaVuSans-73" d="M 2834 3397 
L 2834 2853 
Q 2591 2978 2328 3040 
Q 2066 3103 1784 3103 
Q 1356 3103 1142 2972 
Q 928 2841 928 2578 
Q 928 2378 1081 2264 
Q 1234 2150 1697 2047 
L 1894 2003 
Q 2506 1872 2764 1633 
Q 3022 1394 3022 966 
Q 3022 478 2636 193 
Q 2250 -91 1575 -91 
Q 1294 -91 989 -36 
Q 684 19 347 128 
L 347 722 
Q 666 556 975 473 
Q 1284 391 1588 391 
Q 1994 391 2212 530 
Q 2431 669 2431 922 
Q 2431 1156 2273 1281 
Q 2116 1406 1581 1522 
L 1381 1569 
Q 847 1681 609 1914 
Q 372 2147 372 2553 
Q 372 3047 722 3315 
Q 1072 3584 1716 3584 
Q 2034 3584 2315 3537 
Q 2597 3491 2834 3397 
z
" transform="scale(0.015625)"/>
       <path id="DejaVuSans-20" transform="scale(0.015625)"/>
       <path id="DejaVuSans-4c" d="M 628 4666 
L 1259 4666 
L 1259 531 
L 3531 531 
L 3531 0 
L 628 0 
L 628 4666 
z
" transform="scale(0.015625)"/>
      </defs>
      <use xlink:href="#DejaVuSans-74"/>
      <use xlink:href="#DejaVuSans-65" x="39.208984"/>
      <use xlink:href="#DejaVuSans-73" x="100.732422"/>
      <use xlink:href="#DejaVuSans-74" x="152.832031"/>
      <use xlink:href="#DejaVuSans-20" x="192.041016"/>
      <use xlink:href="#DejaVuSans-4c" x="223.828125"/>
      <use xlink:href="#DejaVuSans-6f" x="277.791016"/>
      <use xlink:href="#DejaVuSans-73" x="338.972656"/>
      <use xlink:href="#DejaVuSans-73" x="391.072266"/>
     </g>
    </g>
   </g>
   <g id="line2d_25">
    <path d="M 101.528926 55.8 
L 113.664637 107.795601 
L 125.800348 231.084197 
L 137.936059 218.097362 
L 150.07177 226.984091 
L 162.207482 255.46978 
L 174.343193 265.23802 
L 186.478904 236.625461 
L 198.614615 266.611911 
L 210.750326 260.966785 
L 222.886037 242.741299 
L 235.021749 257.876275 
L 247.15746 269.553058 
L 259.293171 275.84539 
L 271.428882 276.538043 
L 283.564593 279.471182 
L 295.700304 261.771915 
L 307.836016 274.826479 
L 319.971727 274.050463 
L 332.107438 272.4641 
" clip-path="url(#pa0bf6ddba8)" style="fill: none; stroke-dasharray: 5.55,2.4; stroke-dashoffset: 0; stroke: #6495ed; stroke-width: 1.5"/>
    <defs>
     <path id="m032338ff58" d="M 0 1.5 
C 0.397805 1.5 0.77937 1.341951 1.06066 1.06066 
C 1.341951 0.77937 1.5 0.397805 1.5 0 
C 1.5 -0.397805 1.341951 -0.77937 1.06066 -1.06066 
C 0.77937 -1.341951 0.397805 -1.5 0 -1.5 
C -0.397805 -1.5 -0.77937 -1.341951 -1.06066 -1.06066 
C -1.341951 -0.77937 -1.5 -0.397805 -1.5 0 
C -1.5 0.397805 -1.341951 0.77937 -1.06066 1.06066 
C -0.77937 1.341951 -0.397805 1.5 0 1.5 
z
" style="stroke: #6495ed"/>
    </defs>
    <g clip-path="url(#pa0bf6ddba8)">
     <use xlink:href="#m032338ff58" x="101.528926" y="55.8" style="fill: #6495ed; stroke: #6495ed"/>
     <use xlink:href="#m032338ff58" x="113.664637" y="107.795601" style="fill: #6495ed; stroke: #6495ed"/>
     <use xlink:href="#m032338ff58" x="125.800348" y="231.084197" style="fill: #6495ed; stroke: #6495ed"/>
     <use xlink:href="#m032338ff58" x="137.936059" y="218.097362" style="fill: #6495ed; stroke: #6495ed"/>
     <use xlink:href="#m032338ff58" x="150.07177" y="226.984091" style="fill: #6495ed; stroke: #6495ed"/>
     <use xlink:href="#m032338ff58" x="162.207482" y="255.46978" style="fill: #6495ed; stroke: #6495ed"/>
     <use xlink:href="#m032338ff58" x="174.343193" y="265.23802" style="fill: #6495ed; stroke: #6495ed"/>
     <use xlink:href="#m032338ff58" x="186.478904" y="236.625461" style="fill: #6495ed; stroke: #6495ed"/>
     <use xlink:href="#m032338ff58" x="198.614615" y="266.611911" style="fill: #6495ed; stroke: #6495ed"/>
     <use xlink:href="#m032338ff58" x="210.750326" y="260.966785" style="fill: #6495ed; stroke: #6495ed"/>
     <use xlink:href="#m032338ff58" x="222.886037" y="242.741299" style="fill: #6495ed; stroke: #6495ed"/>
     <use xlink:href="#m032338ff58" x="235.021749" y="257.876275" style="fill: #6495ed; stroke: #6495ed"/>
     <use xlink:href="#m032338ff58" x="247.15746" y="269.553058" style="fill: #6495ed; stroke: #6495ed"/>
     <use xlink:href="#m032338ff58" x="259.293171" y="275.84539" style="fill: #6495ed; stroke: #6495ed"/>
     <use xlink:href="#m032338ff58" x="271.428882" y="276.538043" style="fill: #6495ed; stroke: #6495ed"/>
     <use xlink:href="#m032338ff58" x="283.564593" y="279.471182" style="fill: #6495ed; stroke: #6495ed"/>
     <use xlink:href="#m032338ff58" x="295.700304" y="261.771915" style="fill: #6495ed; stroke: #6495ed"/>
     <use xlink:href="#m032338ff58" x="307.836016" y="274.826479" style="fill: #6495ed; stroke: #6495ed"/>
     <use xlink:href="#m032338ff58" x="319.971727" y="274.050463" style="fill: #6495ed; stroke: #6495ed"/>
     <use xlink:href="#m032338ff58" x="332.107438" y="272.4641" style="fill: #6495ed; stroke: #6495ed"/>
    </g>
   </g>
   <g id="line2d_26">
    <path d="M 101.528926 146.15094 
L 113.664637 221.102532 
L 125.800348 152.237845 
L 137.936059 266.19192 
L 150.07177 270.597539 
L 162.207482 255.882541 
L 174.343193 241.620069 
L 186.478904 272.204029 
L 198.614615 253.585836 
L 210.750326 268.180694 
L 222.886037 273.964568 
L 235.021749 269.682675 
L 247.15746 245.65203 
L 259.293171 275.947186 
L 271.428882 280.19065 
L 283.564593 254.885593 
L 295.700304 275.207038 
L 307.836016 251.634579 
L 319.971727 260.68355 
L 332.107438 258.272492 
" clip-path="url(#pa0bf6ddba8)" style="fill: none; stroke-dasharray: 5.55,2.4; stroke-dashoffset: 0; stroke: #4eee94; stroke-width: 1.5"/>
    <defs>
     <path id="m583e0ff98a" d="M 0 1.5 
C 0.397805 1.5 0.77937 1.341951 1.06066 1.06066 
C 1.341951 0.77937 1.5 0.397805 1.5 0 
C 1.5 -0.397805 1.341951 -0.77937 1.06066 -1.06066 
C 0.77937 -1.341951 0.397805 -1.5 0 -1.5 
C -0.397805 -1.5 -0.77937 -1.341951 -1.06066 -1.06066 
C -1.341951 -0.77937 -1.5 -0.397805 -1.5 0 
C -1.5 0.397805 -1.341951 0.77937 -1.06066 1.06066 
C -0.77937 1.341951 -0.397805 1.5 0 1.5 
z
" style="stroke: #4eee94"/>
    </defs>
    <g clip-path="url(#pa0bf6ddba8)">
     <use xlink:href="#m583e0ff98a" x="101.528926" y="146.15094" style="fill: #4eee94; stroke: #4eee94"/>
     <use xlink:href="#m583e0ff98a" x="113.664637" y="221.102532" style="fill: #4eee94; stroke: #4eee94"/>
     <use xlink:href="#m583e0ff98a" x="125.800348" y="152.237845" style="fill: #4eee94; stroke: #4eee94"/>
     <use xlink:href="#m583e0ff98a" x="137.936059" y="266.19192" style="fill: #4eee94; stroke: #4eee94"/>
     <use xlink:href="#m583e0ff98a" x="150.07177" y="270.597539" style="fill: #4eee94; stroke: #4eee94"/>
     <use xlink:href="#m583e0ff98a" x="162.207482" y="255.882541" style="fill: #4eee94; stroke: #4eee94"/>
     <use xlink:href="#m583e0ff98a" x="174.343193" y="241.620069" style="fill: #4eee94; stroke: #4eee94"/>
     <use xlink:href="#m583e0ff98a" x="186.478904" y="272.204029" style="fill: #4eee94; stroke: #4eee94"/>
     <use xlink:href="#m583e0ff98a" x="198.614615" y="253.585836" style="fill: #4eee94; stroke: #4eee94"/>
     <use xlink:href="#m583e0ff98a" x="210.750326" y="268.180694" style="fill: #4eee94; stroke: #4eee94"/>
     <use xlink:href="#m583e0ff98a" x="222.886037" y="273.964568" style="fill: #4eee94; stroke: #4eee94"/>
     <use xlink:href="#m583e0ff98a" x="235.021749" y="269.682675" style="fill: #4eee94; stroke: #4eee94"/>
     <use xlink:href="#m583e0ff98a" x="247.15746" y="245.65203" style="fill: #4eee94; stroke: #4eee94"/>
     <use xlink:href="#m583e0ff98a" x="259.293171" y="275.947186" style="fill: #4eee94; stroke: #4eee94"/>
     <use xlink:href="#m583e0ff98a" x="271.428882" y="280.19065" style="fill: #4eee94; stroke: #4eee94"/>
     <use xlink:href="#m583e0ff98a" x="283.564593" y="254.885593" style="fill: #4eee94; stroke: #4eee94"/>
     <use xlink:href="#m583e0ff98a" x="295.700304" y="275.207038" style="fill: #4eee94; stroke: #4eee94"/>
     <use xlink:href="#m583e0ff98a" x="307.836016" y="251.634579" style="fill: #4eee94; stroke: #4eee94"/>
     <use xlink:href="#m583e0ff98a" x="319.971727" y="260.68355" style="fill: #4eee94; stroke: #4eee94"/>
     <use xlink:href="#m583e0ff98a" x="332.107438" y="258.272492" style="fill: #4eee94; stroke: #4eee94"/>
    </g>
   </g>
   <g id="line2d_27">
    <path d="M 101.528926 91.279717 
L 113.664637 261.984063 
L 125.800348 262.126525 
L 137.936059 286.202168 
L 150.07177 232.340304 
L 162.207482 260.389836 
L 174.343193 269.996374 
L 186.478904 275.124415 
L 198.614615 254.407447 
L 210.750326 270.522414 
L 222.886037 303.87902 
L 235.021749 286.334208 
L 247.15746 298.385114 
L 259.293171 297.66425 
L 271.428882 284.344535 
L 283.564593 296.827627 
L 295.700304 294.348536 
L 307.836016 306.680467 
L 319.971727 304.601054 
L 332.107438 307.8 
" clip-path="url(#pa0bf6ddba8)" style="fill: none; stroke-dasharray: 5.55,2.4; stroke-dashoffset: 0; stroke: #eec900; stroke-width: 1.5"/>
    <defs>
     <path id="m55b02647a7" d="M 0 1.5 
C 0.397805 1.5 0.77937 1.341951 1.06066 1.06066 
C 1.341951 0.77937 1.5 0.397805 1.5 0 
C 1.5 -0.397805 1.341951 -0.77937 1.06066 -1.06066 
C 0.77937 -1.341951 0.397805 -1.5 0 -1.5 
C -0.397805 -1.5 -0.77937 -1.341951 -1.06066 -1.06066 
C -1.341951 -0.77937 -1.5 -0.397805 -1.5 0 
C -1.5 0.397805 -1.341951 0.77937 -1.06066 1.06066 
C -0.77937 1.341951 -0.397805 1.5 0 1.5 
z
" style="stroke: #eec900"/>
    </defs>
    <g clip-path="url(#pa0bf6ddba8)">
     <use xlink:href="#m55b02647a7" x="101.528926" y="91.279717" style="fill: #eec900; stroke: #eec900"/>
     <use xlink:href="#m55b02647a7" x="113.664637" y="261.984063" style="fill: #eec900; stroke: #eec900"/>
     <use xlink:href="#m55b02647a7" x="125.800348" y="262.126525" style="fill: #eec900; stroke: #eec900"/>
     <use xlink:href="#m55b02647a7" x="137.936059" y="286.202168" style="fill: #eec900; stroke: #eec900"/>
     <use xlink:href="#m55b02647a7" x="150.07177" y="232.340304" style="fill: #eec900; stroke: #eec900"/>
     <use xlink:href="#m55b02647a7" x="162.207482" y="260.389836" style="fill: #eec900; stroke: #eec900"/>
     <use xlink:href="#m55b02647a7" x="174.343193" y="269.996374" style="fill: #eec900; stroke: #eec900"/>
     <use xlink:href="#m55b02647a7" x="186.478904" y="275.124415" style="fill: #eec900; stroke: #eec900"/>
     <use xlink:href="#m55b02647a7" x="198.614615" y="254.407447" style="fill: #eec900; stroke: #eec900"/>
     <use xlink:href="#m55b02647a7" x="210.750326" y="270.522414" style="fill: #eec900; stroke: #eec900"/>
     <use xlink:href="#m55b02647a7" x="222.886037" y="303.87902" style="fill: #eec900; stroke: #eec900"/>
     <use xlink:href="#m55b02647a7" x="235.021749" y="286.334208" style="fill: #eec900; stroke: #eec900"/>
     <use xlink:href="#m55b02647a7" x="247.15746" y="298.385114" style="fill: #eec900; stroke: #eec900"/>
     <use xlink:href="#m55b02647a7" x="259.293171" y="297.66425" style="fill: #eec900; stroke: #eec900"/>
     <use xlink:href="#m55b02647a7" x="271.428882" y="284.344535" style="fill: #eec900; stroke: #eec900"/>
     <use xlink:href="#m55b02647a7" x="283.564593" y="296.827627" style="fill: #eec900; stroke: #eec900"/>
     <use xlink:href="#m55b02647a7" x="295.700304" y="294.348536" style="fill: #eec900; stroke: #eec900"/>
     <use xlink:href="#m55b02647a7" x="307.836016" y="306.680467" style="fill: #eec900; stroke: #eec900"/>
     <use xlink:href="#m55b02647a7" x="319.971727" y="304.601054" style="fill: #eec900; stroke: #eec900"/>
     <use xlink:href="#m55b02647a7" x="332.107438" y="307.8" style="fill: #eec900; stroke: #eec900"/>
    </g>
   </g>
   <g id="patch_3">
    <path d="M 90 320.4 
L 90 43.2 
" style="fill: none; stroke: #000000; stroke-width: 0.8; stroke-linejoin: miter; stroke-linecap: square"/>
   </g>
   <g id="patch_4">
    <path d="M 343.636364 320.4 
L 343.636364 43.2 
" style="fill: none; stroke: #000000; stroke-width: 0.8; stroke-linejoin: miter; stroke-linecap: square"/>
   </g>
   <g id="patch_5">
    <path d="M 90 320.4 
L 343.636364 320.4 
" style="fill: none; stroke: #000000; stroke-width: 0.8; stroke-linejoin: miter; stroke-linecap: square"/>
   </g>
   <g id="patch_6">
    <path d="M 90 43.2 
L 343.636364 43.2 
" style="fill: none; stroke: #000000; stroke-width: 0.8; stroke-linejoin: miter; stroke-linecap: square"/>
   </g>
   <g id="text_15">
    <!-- MNIST test Loss -->
    <g transform="translate(169.412557 37.2) scale(0.12 -0.12)">
     <defs>
      <path id="DejaVuSans-4d" d="M 628 4666 
L 1569 4666 
L 2759 1491 
L 3956 4666 
L 4897 4666 
L 4897 0 
L 4281 0 
L 4281 4097 
L 3078 897 
L 2444 897 
L 1241 4097 
L 1241 0 
L 628 0 
L 628 4666 
z
" transform="scale(0.015625)"/>
      <path id="DejaVuSans-4e" d="M 628 4666 
L 1478 4666 
L 3547 763 
L 3547 4666 
L 4159 4666 
L 4159 0 
L 3309 0 
L 1241 3903 
L 1241 0 
L 628 0 
L 628 4666 
z
" transform="scale(0.015625)"/>
      <path id="DejaVuSans-49" d="M 628 4666 
L 1259 4666 
L 1259 0 
L 628 0 
L 628 4666 
z
" transform="scale(0.015625)"/>
      <path id="DejaVuSans-53" d="M 3425 4513 
L 3425 3897 
Q 3066 4069 2747 4153 
Q 2428 4238 2131 4238 
Q 1616 4238 1336 4038 
Q 1056 3838 1056 3469 
Q 1056 3159 1242 3001 
Q 1428 2844 1947 2747 
L 2328 2669 
Q 3034 2534 3370 2195 
Q 3706 1856 3706 1288 
Q 3706 609 3251 259 
Q 2797 -91 1919 -91 
Q 1588 -91 1214 -16 
Q 841 59 441 206 
L 441 856 
Q 825 641 1194 531 
Q 1563 422 1919 422 
Q 2459 422 2753 634 
Q 3047 847 3047 1241 
Q 3047 1584 2836 1778 
Q 2625 1972 2144 2069 
L 1759 2144 
Q 1053 2284 737 2584 
Q 422 2884 422 3419 
Q 422 4038 858 4394 
Q 1294 4750 2059 4750 
Q 2388 4750 2728 4690 
Q 3069 4631 3425 4513 
z
" transform="scale(0.015625)"/>
      <path id="DejaVuSans-54" d="M -19 4666 
L 3928 4666 
L 3928 4134 
L 2272 4134 
L 2272 0 
L 1638 0 
L 1638 4134 
L -19 4134 
L -19 4666 
z
" transform="scale(0.015625)"/>
     </defs>
     <use xlink:href="#DejaVuSans-4d"/>
     <use xlink:href="#DejaVuSans-4e" x="86.279297"/>
     <use xlink:href="#DejaVuSans-49" x="161.083984"/>
     <use xlink:href="#DejaVuSans-53" x="190.576172"/>
     <use xlink:href="#DejaVuSans-54" x="254.052734"/>
     <use xlink:href="#DejaVuSans-20" x="315.136719"/>
     <use xlink:href="#DejaVuSans-74" x="346.923828"/>
     <use xlink:href="#DejaVuSans-65" x="386.132812"/>
     <use xlink:href="#DejaVuSans-73" x="447.65625"/>
     <use xlink:href="#DejaVuSans-74" x="499.755859"/>
     <use xlink:href="#DejaVuSans-20" x="538.964844"/>
     <use xlink:href="#DejaVuSans-4c" x="570.751953"/>
     <use xlink:href="#DejaVuSans-6f" x="624.714844"/>
     <use xlink:href="#DejaVuSans-73" x="685.896484"/>
     <use xlink:href="#DejaVuSans-73" x="737.996094"/>
    </g>
   </g>
   <g id="legend_1">
    <g id="patch_7">
     <path d="M 169.611364 95.790625 
L 336.636364 95.790625 
Q 338.636364 95.790625 338.636364 93.790625 
L 338.636364 50.2 
Q 338.636364 48.2 336.636364 48.2 
L 169.611364 48.2 
Q 167.611364 48.2 167.611364 50.2 
L 167.611364 93.790625 
Q 167.611364 95.790625 169.611364 95.790625 
z
" style="fill: #ffffff; opacity: 0.8; stroke: #cccccc; stroke-linejoin: miter"/>
    </g>
    <g id="line2d_28">
     <path d="M 171.611364 56.298437 
L 181.611364 56.298437 
L 191.611364 56.298437 
" style="fill: none; stroke-dasharray: 5.55,2.4; stroke-dashoffset: 0; stroke: #6495ed; stroke-width: 1.5"/>
     <g>
      <use xlink:href="#m032338ff58" x="181.611364" y="56.298437" style="fill: #6495ed; stroke: #6495ed"/>
     </g>
    </g>
    <g id="text_16">
     <!-- ResNet18 -->
     <g transform="translate(199.611364 59.798437) scale(0.1 -0.1)">
      <defs>
       <path id="DejaVuSans-52" d="M 2841 2188 
Q 3044 2119 3236 1894 
Q 3428 1669 3622 1275 
L 4263 0 
L 3584 0 
L 2988 1197 
Q 2756 1666 2539 1819 
Q 2322 1972 1947 1972 
L 1259 1972 
L 1259 0 
L 628 0 
L 628 4666 
L 2053 4666 
Q 2853 4666 3247 4331 
Q 3641 3997 3641 3322 
Q 3641 2881 3436 2590 
Q 3231 2300 2841 2188 
z
M 1259 4147 
L 1259 2491 
L 2053 2491 
Q 2509 2491 2742 2702 
Q 2975 2913 2975 3322 
Q 2975 3731 2742 3939 
Q 2509 4147 2053 4147 
L 1259 4147 
z
" transform="scale(0.015625)"/>
      </defs>
      <use xlink:href="#DejaVuSans-52"/>
      <use xlink:href="#DejaVuSans-65" x="64.982422"/>
      <use xlink:href="#DejaVuSans-73" x="126.505859"/>
      <use xlink:href="#DejaVuSans-4e" x="178.605469"/>
      <use xlink:href="#DejaVuSans-65" x="253.410156"/>
      <use xlink:href="#DejaVuSans-74" x="314.933594"/>
      <use xlink:href="#DejaVuSans-31" x="354.142578"/>
      <use xlink:href="#DejaVuSans-38" x="417.765625"/>
     </g>
    </g>
    <g id="line2d_29">
     <path d="M 171.611364 70.976562 
L 181.611364 70.976562 
L 191.611364 70.976562 
" style="fill: none; stroke-dasharray: 5.55,2.4; stroke-dashoffset: 0; stroke: #4eee94; stroke-width: 1.5"/>
     <g>
      <use xlink:href="#m583e0ff98a" x="181.611364" y="70.976562" style="fill: #4eee94; stroke: #4eee94"/>
     </g>
    </g>
    <g id="text_17">
     <!-- ResNet18_With_Dropout -->
     <g transform="translate(199.611364 74.476562) scale(0.1 -0.1)">
      <defs>
       <path id="DejaVuSans-5f" d="M 3263 -1063 
L 3263 -1509 
L -63 -1509 
L -63 -1063 
L 3263 -1063 
z
" transform="scale(0.015625)"/>
       <path id="DejaVuSans-57" d="M 213 4666 
L 850 4666 
L 1831 722 
L 2809 4666 
L 3519 4666 
L 4500 722 
L 5478 4666 
L 6119 4666 
L 4947 0 
L 4153 0 
L 3169 4050 
L 2175 0 
L 1381 0 
L 213 4666 
z
" transform="scale(0.015625)"/>
       <path id="DejaVuSans-69" d="M 603 3500 
L 1178 3500 
L 1178 0 
L 603 0 
L 603 3500 
z
M 603 4863 
L 1178 4863 
L 1178 4134 
L 603 4134 
L 603 4863 
z
" transform="scale(0.015625)"/>
       <path id="DejaVuSans-44" d="M 1259 4147 
L 1259 519 
L 2022 519 
Q 2988 519 3436 956 
Q 3884 1394 3884 2338 
Q 3884 3275 3436 3711 
Q 2988 4147 2022 4147 
L 1259 4147 
z
M 628 4666 
L 1925 4666 
Q 3281 4666 3915 4102 
Q 4550 3538 4550 2338 
Q 4550 1131 3912 565 
Q 3275 0 1925 0 
L 628 0 
L 628 4666 
z
" transform="scale(0.015625)"/>
       <path id="DejaVuSans-72" d="M 2631 2963 
Q 2534 3019 2420 3045 
Q 2306 3072 2169 3072 
Q 1681 3072 1420 2755 
Q 1159 2438 1159 1844 
L 1159 0 
L 581 0 
L 581 3500 
L 1159 3500 
L 1159 2956 
Q 1341 3275 1631 3429 
Q 1922 3584 2338 3584 
Q 2397 3584 2469 3576 
Q 2541 3569 2628 3553 
L 2631 2963 
z
" transform="scale(0.015625)"/>
       <path id="DejaVuSans-75" d="M 544 1381 
L 544 3500 
L 1119 3500 
L 1119 1403 
Q 1119 906 1312 657 
Q 1506 409 1894 409 
Q 2359 409 2629 706 
Q 2900 1003 2900 1516 
L 2900 3500 
L 3475 3500 
L 3475 0 
L 2900 0 
L 2900 538 
Q 2691 219 2414 64 
Q 2138 -91 1772 -91 
Q 1169 -91 856 284 
Q 544 659 544 1381 
z
M 1991 3584 
L 1991 3584 
z
" transform="scale(0.015625)"/>
      </defs>
      <use xlink:href="#DejaVuSans-52"/>
      <use xlink:href="#DejaVuSans-65" x="64.982422"/>
      <use xlink:href="#DejaVuSans-73" x="126.505859"/>
      <use xlink:href="#DejaVuSans-4e" x="178.605469"/>
      <use xlink:href="#DejaVuSans-65" x="253.410156"/>
      <use xlink:href="#DejaVuSans-74" x="314.933594"/>
      <use xlink:href="#DejaVuSans-31" x="354.142578"/>
      <use xlink:href="#DejaVuSans-38" x="417.765625"/>
      <use xlink:href="#DejaVuSans-5f" x="481.388672"/>
      <use xlink:href="#DejaVuSans-57" x="531.388672"/>
      <use xlink:href="#DejaVuSans-69" x="628.015625"/>
      <use xlink:href="#DejaVuSans-74" x="655.798828"/>
      <use xlink:href="#DejaVuSans-68" x="695.007812"/>
      <use xlink:href="#DejaVuSans-5f" x="758.386719"/>
      <use xlink:href="#DejaVuSans-44" x="808.386719"/>
      <use xlink:href="#DejaVuSans-72" x="885.388672"/>
      <use xlink:href="#DejaVuSans-6f" x="924.251953"/>
      <use xlink:href="#DejaVuSans-70" x="985.433594"/>
      <use xlink:href="#DejaVuSans-6f" x="1048.910156"/>
      <use xlink:href="#DejaVuSans-75" x="1110.091797"/>
      <use xlink:href="#DejaVuSans-74" x="1173.470703"/>
     </g>
    </g>
    <g id="line2d_30">
     <path d="M 171.611364 85.932812 
L 181.611364 85.932812 
L 191.611364 85.932812 
" style="fill: none; stroke-dasharray: 5.55,2.4; stroke-dashoffset: 0; stroke: #eec900; stroke-width: 1.5"/>
     <g>
      <use xlink:href="#m55b02647a7" x="181.611364" y="85.932812" style="fill: #eec900; stroke: #eec900"/>
     </g>
    </g>
    <g id="text_18">
     <!-- ResNet_with_Smaller_Conv -->
     <g transform="translate(199.611364 89.432812) scale(0.1 -0.1)">
      <defs>
       <path id="DejaVuSans-77" d="M 269 3500 
L 844 3500 
L 1563 769 
L 2278 3500 
L 2956 3500 
L 3675 769 
L 4391 3500 
L 4966 3500 
L 4050 0 
L 3372 0 
L 2619 2869 
L 1863 0 
L 1184 0 
L 269 3500 
z
" transform="scale(0.015625)"/>
       <path id="DejaVuSans-6d" d="M 3328 2828 
Q 3544 3216 3844 3400 
Q 4144 3584 4550 3584 
Q 5097 3584 5394 3201 
Q 5691 2819 5691 2113 
L 5691 0 
L 5113 0 
L 5113 2094 
Q 5113 2597 4934 2840 
Q 4756 3084 4391 3084 
Q 3944 3084 3684 2787 
Q 3425 2491 3425 1978 
L 3425 0 
L 2847 0 
L 2847 2094 
Q 2847 2600 2669 2842 
Q 2491 3084 2119 3084 
Q 1678 3084 1418 2786 
Q 1159 2488 1159 1978 
L 1159 0 
L 581 0 
L 581 3500 
L 1159 3500 
L 1159 2956 
Q 1356 3278 1631 3431 
Q 1906 3584 2284 3584 
Q 2666 3584 2933 3390 
Q 3200 3197 3328 2828 
z
" transform="scale(0.015625)"/>
       <path id="DejaVuSans-61" d="M 2194 1759 
Q 1497 1759 1228 1600 
Q 959 1441 959 1056 
Q 959 750 1161 570 
Q 1363 391 1709 391 
Q 2188 391 2477 730 
Q 2766 1069 2766 1631 
L 2766 1759 
L 2194 1759 
z
M 3341 1997 
L 3341 0 
L 2766 0 
L 2766 531 
Q 2569 213 2275 61 
Q 1981 -91 1556 -91 
Q 1019 -91 701 211 
Q 384 513 384 1019 
Q 384 1609 779 1909 
Q 1175 2209 1959 2209 
L 2766 2209 
L 2766 2266 
Q 2766 2663 2505 2880 
Q 2244 3097 1772 3097 
Q 1472 3097 1187 3025 
Q 903 2953 641 2809 
L 641 3341 
Q 956 3463 1253 3523 
Q 1550 3584 1831 3584 
Q 2591 3584 2966 3190 
Q 3341 2797 3341 1997 
z
" transform="scale(0.015625)"/>
       <path id="DejaVuSans-6c" d="M 603 4863 
L 1178 4863 
L 1178 0 
L 603 0 
L 603 4863 
z
" transform="scale(0.015625)"/>
       <path id="DejaVuSans-43" d="M 4122 4306 
L 4122 3641 
Q 3803 3938 3442 4084 
Q 3081 4231 2675 4231 
Q 1875 4231 1450 3742 
Q 1025 3253 1025 2328 
Q 1025 1406 1450 917 
Q 1875 428 2675 428 
Q 3081 428 3442 575 
Q 3803 722 4122 1019 
L 4122 359 
Q 3791 134 3420 21 
Q 3050 -91 2638 -91 
Q 1578 -91 968 557 
Q 359 1206 359 2328 
Q 359 3453 968 4101 
Q 1578 4750 2638 4750 
Q 3056 4750 3426 4639 
Q 3797 4528 4122 4306 
z
" transform="scale(0.015625)"/>
       <path id="DejaVuSans-6e" d="M 3513 2113 
L 3513 0 
L 2938 0 
L 2938 2094 
Q 2938 2591 2744 2837 
Q 2550 3084 2163 3084 
Q 1697 3084 1428 2787 
Q 1159 2491 1159 1978 
L 1159 0 
L 581 0 
L 581 3500 
L 1159 3500 
L 1159 2956 
Q 1366 3272 1645 3428 
Q 1925 3584 2291 3584 
Q 2894 3584 3203 3211 
Q 3513 2838 3513 2113 
z
" transform="scale(0.015625)"/>
       <path id="DejaVuSans-76" d="M 191 3500 
L 800 3500 
L 1894 563 
L 2988 3500 
L 3597 3500 
L 2284 0 
L 1503 0 
L 191 3500 
z
" transform="scale(0.015625)"/>
      </defs>
      <use xlink:href="#DejaVuSans-52"/>
      <use xlink:href="#DejaVuSans-65" x="64.982422"/>
      <use xlink:href="#DejaVuSans-73" x="126.505859"/>
      <use xlink:href="#DejaVuSans-4e" x="178.605469"/>
      <use xlink:href="#DejaVuSans-65" x="253.410156"/>
      <use xlink:href="#DejaVuSans-74" x="314.933594"/>
      <use xlink:href="#DejaVuSans-5f" x="354.142578"/>
      <use xlink:href="#DejaVuSans-77" x="404.142578"/>
      <use xlink:href="#DejaVuSans-69" x="485.929688"/>
      <use xlink:href="#DejaVuSans-74" x="513.712891"/>
      <use xlink:href="#DejaVuSans-68" x="552.921875"/>
      <use xlink:href="#DejaVuSans-5f" x="616.300781"/>
      <use xlink:href="#DejaVuSans-53" x="666.300781"/>
      <use xlink:href="#DejaVuSans-6d" x="729.777344"/>
      <use xlink:href="#DejaVuSans-61" x="827.189453"/>
      <use xlink:href="#DejaVuSans-6c" x="888.46875"/>
      <use xlink:href="#DejaVuSans-6c" x="916.251953"/>
      <use xlink:href="#DejaVuSans-65" x="944.035156"/>
      <use xlink:href="#DejaVuSans-72" x="1005.558594"/>
      <use xlink:href="#DejaVuSans-5f" x="1046.671875"/>
      <use xlink:href="#DejaVuSans-43" x="1096.671875"/>
      <use xlink:href="#DejaVuSans-6f" x="1166.496094"/>
      <use xlink:href="#DejaVuSans-6e" x="1227.677734"/>
      <use xlink:href="#DejaVuSans-76" x="1291.056641"/>
     </g>
    </g>
   </g>
  </g>
  <g id="axes_2">
   <g id="patch_8">
    <path d="M 394.363636 320.4 
L 648 320.4 
L 648 43.2 
L 394.363636 43.2 
z
" style="fill: #ffffff"/>
   </g>
   <g id="matplotlib.axis_3">
    <g id="xtick_5">
     <g id="line2d_31">
      <path d="M 454.435407 320.4 
L 454.435407 43.2 
" clip-path="url(#p5aa4e59629)" style="fill: none; stroke: #b0b0b0; stroke-width: 0.8; stroke-linecap: square"/>
     </g>
     <g id="line2d_32">
      <g>
       <use xlink:href="#m20875f28c6" x="454.435407" y="320.4" style="stroke: #000000; stroke-width: 0.8"/>
      </g>
     </g>
     <g id="text_19">
      <!-- 5 -->
      <g transform="translate(451.254157 334.998438) scale(0.1 -0.1)">
       <use xlink:href="#DejaVuSans-35"/>
      </g>
     </g>
    </g>
    <g id="xtick_6">
     <g id="line2d_33">
      <path d="M 515.113963 320.4 
L 515.113963 43.2 
" clip-path="url(#p5aa4e59629)" style="fill: none; stroke: #b0b0b0; stroke-width: 0.8; stroke-linecap: square"/>
     </g>
     <g id="line2d_34">
      <g>
       <use xlink:href="#m20875f28c6" x="515.113963" y="320.4" style="stroke: #000000; stroke-width: 0.8"/>
      </g>
     </g>
     <g id="text_20">
      <!-- 10 -->
      <g transform="translate(508.751463 334.998438) scale(0.1 -0.1)">
       <use xlink:href="#DejaVuSans-31"/>
       <use xlink:href="#DejaVuSans-30" x="63.623047"/>
      </g>
     </g>
    </g>
    <g id="xtick_7">
     <g id="line2d_35">
      <path d="M 575.792518 320.4 
L 575.792518 43.2 
" clip-path="url(#p5aa4e59629)" style="fill: none; stroke: #b0b0b0; stroke-width: 0.8; stroke-linecap: square"/>
     </g>
     <g id="line2d_36">
      <g>
       <use xlink:href="#m20875f28c6" x="575.792518" y="320.4" style="stroke: #000000; stroke-width: 0.8"/>
      </g>
     </g>
     <g id="text_21">
      <!-- 15 -->
      <g transform="translate(569.430018 334.998438) scale(0.1 -0.1)">
       <use xlink:href="#DejaVuSans-31"/>
       <use xlink:href="#DejaVuSans-35" x="63.623047"/>
      </g>
     </g>
    </g>
    <g id="xtick_8">
     <g id="line2d_37">
      <path d="M 636.471074 320.4 
L 636.471074 43.2 
" clip-path="url(#p5aa4e59629)" style="fill: none; stroke: #b0b0b0; stroke-width: 0.8; stroke-linecap: square"/>
     </g>
     <g id="line2d_38">
      <g>
       <use xlink:href="#m20875f28c6" x="636.471074" y="320.4" style="stroke: #000000; stroke-width: 0.8"/>
      </g>
     </g>
     <g id="text_22">
      <!-- 20 -->
      <g transform="translate(630.108574 334.998438) scale(0.1 -0.1)">
       <use xlink:href="#DejaVuSans-32"/>
       <use xlink:href="#DejaVuSans-30" x="63.623047"/>
      </g>
     </g>
    </g>
    <g id="text_23">
     <!-- Epoch -->
     <g transform="translate(505.870881 348.676562) scale(0.1 -0.1)">
      <use xlink:href="#DejaVuSans-45"/>
      <use xlink:href="#DejaVuSans-70" x="63.183594"/>
      <use xlink:href="#DejaVuSans-6f" x="126.660156"/>
      <use xlink:href="#DejaVuSans-63" x="187.841797"/>
      <use xlink:href="#DejaVuSans-68" x="242.822266"/>
     </g>
    </g>
   </g>
   <g id="matplotlib.axis_4">
    <g id="ytick_9">
     <g id="line2d_39">
      <path d="M 394.363636 299.99469 
L 648 299.99469 
" clip-path="url(#p5aa4e59629)" style="fill: none; stroke: #b0b0b0; stroke-width: 0.8; stroke-linecap: square"/>
     </g>
     <g id="line2d_40">
      <g>
       <use xlink:href="#m687b050b9e" x="394.363636" y="299.99469" style="stroke: #000000; stroke-width: 0.8"/>
      </g>
     </g>
     <g id="text_24">
      <!-- 97.5 -->
      <g transform="translate(365.098011 303.793909) scale(0.1 -0.1)">
       <defs>
        <path id="DejaVuSans-39" d="M 703 97 
L 703 672 
Q 941 559 1184 500 
Q 1428 441 1663 441 
Q 2288 441 2617 861 
Q 2947 1281 2994 2138 
Q 2813 1869 2534 1725 
Q 2256 1581 1919 1581 
Q 1219 1581 811 2004 
Q 403 2428 403 3163 
Q 403 3881 828 4315 
Q 1253 4750 1959 4750 
Q 2769 4750 3195 4129 
Q 3622 3509 3622 2328 
Q 3622 1225 3098 567 
Q 2575 -91 1691 -91 
Q 1453 -91 1209 -44 
Q 966 3 703 97 
z
M 1959 2075 
Q 2384 2075 2632 2365 
Q 2881 2656 2881 3163 
Q 2881 3666 2632 3958 
Q 2384 4250 1959 4250 
Q 1534 4250 1286 3958 
Q 1038 3666 1038 3163 
Q 1038 2656 1286 2365 
Q 1534 2075 1959 2075 
z
" transform="scale(0.015625)"/>
       </defs>
       <use xlink:href="#DejaVuSans-39"/>
       <use xlink:href="#DejaVuSans-37" x="63.623047"/>
       <use xlink:href="#DejaVuSans-2e" x="127.246094"/>
       <use xlink:href="#DejaVuSans-35" x="159.033203"/>
      </g>
     </g>
    </g>
    <g id="ytick_10">
     <g id="line2d_41">
      <path d="M 394.363636 244.242478 
L 648 244.242478 
" clip-path="url(#p5aa4e59629)" style="fill: none; stroke: #b0b0b0; stroke-width: 0.8; stroke-linecap: square"/>
     </g>
     <g id="line2d_42">
      <g>
       <use xlink:href="#m687b050b9e" x="394.363636" y="244.242478" style="stroke: #000000; stroke-width: 0.8"/>
      </g>
     </g>
     <g id="text_25">
      <!-- 98.0 -->
      <g transform="translate(365.098011 248.041697) scale(0.1 -0.1)">
       <use xlink:href="#DejaVuSans-39"/>
       <use xlink:href="#DejaVuSans-38" x="63.623047"/>
       <use xlink:href="#DejaVuSans-2e" x="127.246094"/>
       <use xlink:href="#DejaVuSans-30" x="159.033203"/>
      </g>
     </g>
    </g>
    <g id="ytick_11">
     <g id="line2d_43">
      <path d="M 394.363636 188.490265 
L 648 188.490265 
" clip-path="url(#p5aa4e59629)" style="fill: none; stroke: #b0b0b0; stroke-width: 0.8; stroke-linecap: square"/>
     </g>
     <g id="line2d_44">
      <g>
       <use xlink:href="#m687b050b9e" x="394.363636" y="188.490265" style="stroke: #000000; stroke-width: 0.8"/>
      </g>
     </g>
     <g id="text_26">
      <!-- 98.5 -->
      <g transform="translate(365.098011 192.289484) scale(0.1 -0.1)">
       <use xlink:href="#DejaVuSans-39"/>
       <use xlink:href="#DejaVuSans-38" x="63.623047"/>
       <use xlink:href="#DejaVuSans-2e" x="127.246094"/>
       <use xlink:href="#DejaVuSans-35" x="159.033203"/>
      </g>
     </g>
    </g>
    <g id="ytick_12">
     <g id="line2d_45">
      <path d="M 394.363636 132.738053 
L 648 132.738053 
" clip-path="url(#p5aa4e59629)" style="fill: none; stroke: #b0b0b0; stroke-width: 0.8; stroke-linecap: square"/>
     </g>
     <g id="line2d_46">
      <g>
       <use xlink:href="#m687b050b9e" x="394.363636" y="132.738053" style="stroke: #000000; stroke-width: 0.8"/>
      </g>
     </g>
     <g id="text_27">
      <!-- 99.0 -->
      <g transform="translate(365.098011 136.537272) scale(0.1 -0.1)">
       <use xlink:href="#DejaVuSans-39"/>
       <use xlink:href="#DejaVuSans-39" x="63.623047"/>
       <use xlink:href="#DejaVuSans-2e" x="127.246094"/>
       <use xlink:href="#DejaVuSans-30" x="159.033203"/>
      </g>
     </g>
    </g>
    <g id="ytick_13">
     <g id="line2d_47">
      <path d="M 394.363636 76.985841 
L 648 76.985841 
" clip-path="url(#p5aa4e59629)" style="fill: none; stroke: #b0b0b0; stroke-width: 0.8; stroke-linecap: square"/>
     </g>
     <g id="line2d_48">
      <g>
       <use xlink:href="#m687b050b9e" x="394.363636" y="76.985841" style="stroke: #000000; stroke-width: 0.8"/>
      </g>
     </g>
     <g id="text_28">
      <!-- 99.5 -->
      <g transform="translate(365.098011 80.785059) scale(0.1 -0.1)">
       <use xlink:href="#DejaVuSans-39"/>
       <use xlink:href="#DejaVuSans-39" x="63.623047"/>
       <use xlink:href="#DejaVuSans-2e" x="127.246094"/>
       <use xlink:href="#DejaVuSans-35" x="159.033203"/>
      </g>
     </g>
    </g>
    <g id="text_29">
     <!-- Accuracy (%) -->
     <g transform="translate(359.018324 214.869531) rotate(-90) scale(0.1 -0.1)">
      <defs>
       <path id="DejaVuSans-41" d="M 2188 4044 
L 1331 1722 
L 3047 1722 
L 2188 4044 
z
M 1831 4666 
L 2547 4666 
L 4325 0 
L 3669 0 
L 3244 1197 
L 1141 1197 
L 716 0 
L 50 0 
L 1831 4666 
z
" transform="scale(0.015625)"/>
       <path id="DejaVuSans-79" d="M 2059 -325 
Q 1816 -950 1584 -1140 
Q 1353 -1331 966 -1331 
L 506 -1331 
L 506 -850 
L 844 -850 
Q 1081 -850 1212 -737 
Q 1344 -625 1503 -206 
L 1606 56 
L 191 3500 
L 800 3500 
L 1894 763 
L 2988 3500 
L 3597 3500 
L 2059 -325 
z
" transform="scale(0.015625)"/>
       <path id="DejaVuSans-28" d="M 1984 4856 
Q 1566 4138 1362 3434 
Q 1159 2731 1159 2009 
Q 1159 1288 1364 580 
Q 1569 -128 1984 -844 
L 1484 -844 
Q 1016 -109 783 600 
Q 550 1309 550 2009 
Q 550 2706 781 3412 
Q 1013 4119 1484 4856 
L 1984 4856 
z
" transform="scale(0.015625)"/>
       <path id="DejaVuSans-25" d="M 4653 2053 
Q 4381 2053 4226 1822 
Q 4072 1591 4072 1178 
Q 4072 772 4226 539 
Q 4381 306 4653 306 
Q 4919 306 5073 539 
Q 5228 772 5228 1178 
Q 5228 1588 5073 1820 
Q 4919 2053 4653 2053 
z
M 4653 2450 
Q 5147 2450 5437 2106 
Q 5728 1763 5728 1178 
Q 5728 594 5436 251 
Q 5144 -91 4653 -91 
Q 4153 -91 3862 251 
Q 3572 594 3572 1178 
Q 3572 1766 3864 2108 
Q 4156 2450 4653 2450 
z
M 1428 4353 
Q 1159 4353 1004 4120 
Q 850 3888 850 3481 
Q 850 3069 1003 2837 
Q 1156 2606 1428 2606 
Q 1700 2606 1854 2837 
Q 2009 3069 2009 3481 
Q 2009 3884 1853 4118 
Q 1697 4353 1428 4353 
z
M 4250 4750 
L 4750 4750 
L 1831 -91 
L 1331 -91 
L 4250 4750 
z
M 1428 4750 
Q 1922 4750 2215 4408 
Q 2509 4066 2509 3481 
Q 2509 2891 2217 2550 
Q 1925 2209 1428 2209 
Q 931 2209 642 2551 
Q 353 2894 353 3481 
Q 353 4063 643 4406 
Q 934 4750 1428 4750 
z
" transform="scale(0.015625)"/>
       <path id="DejaVuSans-29" d="M 513 4856 
L 1013 4856 
Q 1481 4119 1714 3412 
Q 1947 2706 1947 2009 
Q 1947 1309 1714 600 
Q 1481 -109 1013 -844 
L 513 -844 
Q 928 -128 1133 580 
Q 1338 1288 1338 2009 
Q 1338 2731 1133 3434 
Q 928 4138 513 4856 
z
" transform="scale(0.015625)"/>
      </defs>
      <use xlink:href="#DejaVuSans-41"/>
      <use xlink:href="#DejaVuSans-63" x="66.658203"/>
      <use xlink:href="#DejaVuSans-63" x="121.638672"/>
      <use xlink:href="#DejaVuSans-75" x="176.619141"/>
      <use xlink:href="#DejaVuSans-72" x="239.998047"/>
      <use xlink:href="#DejaVuSans-61" x="281.111328"/>
      <use xlink:href="#DejaVuSans-63" x="342.390625"/>
      <use xlink:href="#DejaVuSans-79" x="397.371094"/>
      <use xlink:href="#DejaVuSans-20" x="456.550781"/>
      <use xlink:href="#DejaVuSans-28" x="488.337891"/>
      <use xlink:href="#DejaVuSans-25" x="527.351562"/>
      <use xlink:href="#DejaVuSans-29" x="622.371094"/>
     </g>
    </g>
   </g>
   <g id="line2d_49">
    <path d="M 405.892562 307.8 
L 418.028273 285.499115 
L 430.163984 132.738053 
L 442.299696 143.888496 
L 454.435407 151.693805 
L 466.571118 109.322124 
L 478.706829 105.976991 
L 490.84254 123.817699 
L 502.978251 101.516814 
L 515.113963 104.861947 
L 527.249674 123.817699 
L 539.385385 109.322124 
L 551.521096 100.40177 
L 563.656807 90.366372 
L 575.792518 85.906195 
L 587.92823 81.446018 
L 600.063941 108.20708 
L 612.199652 89.251327 
L 624.335363 91.481416 
L 636.471074 88.136283 
" clip-path="url(#p5aa4e59629)" style="fill: none; stroke-dasharray: 5.55,2.4; stroke-dashoffset: 0; stroke: #6495ed; stroke-width: 1.5"/>
    <g clip-path="url(#p5aa4e59629)">
     <use xlink:href="#m032338ff58" x="405.892562" y="307.8" style="fill: #6495ed; stroke: #6495ed"/>
     <use xlink:href="#m032338ff58" x="418.028273" y="285.499115" style="fill: #6495ed; stroke: #6495ed"/>
     <use xlink:href="#m032338ff58" x="430.163984" y="132.738053" style="fill: #6495ed; stroke: #6495ed"/>
     <use xlink:href="#m032338ff58" x="442.299696" y="143.888496" style="fill: #6495ed; stroke: #6495ed"/>
     <use xlink:href="#m032338ff58" x="454.435407" y="151.693805" style="fill: #6495ed; stroke: #6495ed"/>
     <use xlink:href="#m032338ff58" x="466.571118" y="109.322124" style="fill: #6495ed; stroke: #6495ed"/>
     <use xlink:href="#m032338ff58" x="478.706829" y="105.976991" style="fill: #6495ed; stroke: #6495ed"/>
     <use xlink:href="#m032338ff58" x="490.84254" y="123.817699" style="fill: #6495ed; stroke: #6495ed"/>
     <use xlink:href="#m032338ff58" x="502.978251" y="101.516814" style="fill: #6495ed; stroke: #6495ed"/>
     <use xlink:href="#m032338ff58" x="515.113963" y="104.861947" style="fill: #6495ed; stroke: #6495ed"/>
     <use xlink:href="#m032338ff58" x="527.249674" y="123.817699" style="fill: #6495ed; stroke: #6495ed"/>
     <use xlink:href="#m032338ff58" x="539.385385" y="109.322124" style="fill: #6495ed; stroke: #6495ed"/>
     <use xlink:href="#m032338ff58" x="551.521096" y="100.40177" style="fill: #6495ed; stroke: #6495ed"/>
     <use xlink:href="#m032338ff58" x="563.656807" y="90.366372" style="fill: #6495ed; stroke: #6495ed"/>
     <use xlink:href="#m032338ff58" x="575.792518" y="85.906195" style="fill: #6495ed; stroke: #6495ed"/>
     <use xlink:href="#m032338ff58" x="587.92823" y="81.446018" style="fill: #6495ed; stroke: #6495ed"/>
     <use xlink:href="#m032338ff58" x="600.063941" y="108.20708" style="fill: #6495ed; stroke: #6495ed"/>
     <use xlink:href="#m032338ff58" x="612.199652" y="89.251327" style="fill: #6495ed; stroke: #6495ed"/>
     <use xlink:href="#m032338ff58" x="624.335363" y="91.481416" style="fill: #6495ed; stroke: #6495ed"/>
     <use xlink:href="#m032338ff58" x="636.471074" y="88.136283" style="fill: #6495ed; stroke: #6495ed"/>
    </g>
   </g>
   <g id="line2d_50">
    <path d="M 405.892562 227.516814 
L 418.028273 142.773451 
L 430.163984 213.021239 
L 442.299696 101.516814 
L 454.435407 97.056637 
L 466.571118 111.552212 
L 478.706829 133.853097 
L 490.84254 100.40177 
L 502.978251 116.012389 
L 515.113963 91.481416 
L 527.249674 98.171681 
L 539.385385 95.941593 
L 551.521096 108.20708 
L 563.656807 90.366372 
L 575.792518 78.100885 
L 587.92823 114.897345 
L 600.063941 85.906195 
L 612.199652 114.897345 
L 624.335363 105.976991 
L 636.471074 109.322124 
" clip-path="url(#p5aa4e59629)" style="fill: none; stroke-dasharray: 5.55,2.4; stroke-dashoffset: 0; stroke: #4eee94; stroke-width: 1.5"/>
    <g clip-path="url(#p5aa4e59629)">
     <use xlink:href="#m583e0ff98a" x="405.892562" y="227.516814" style="fill: #4eee94; stroke: #4eee94"/>
     <use xlink:href="#m583e0ff98a" x="418.028273" y="142.773451" style="fill: #4eee94; stroke: #4eee94"/>
     <use xlink:href="#m583e0ff98a" x="430.163984" y="213.021239" style="fill: #4eee94; stroke: #4eee94"/>
     <use xlink:href="#m583e0ff98a" x="442.299696" y="101.516814" style="fill: #4eee94; stroke: #4eee94"/>
     <use xlink:href="#m583e0ff98a" x="454.435407" y="97.056637" style="fill: #4eee94; stroke: #4eee94"/>
     <use xlink:href="#m583e0ff98a" x="466.571118" y="111.552212" style="fill: #4eee94; stroke: #4eee94"/>
     <use xlink:href="#m583e0ff98a" x="478.706829" y="133.853097" style="fill: #4eee94; stroke: #4eee94"/>
     <use xlink:href="#m583e0ff98a" x="490.84254" y="100.40177" style="fill: #4eee94; stroke: #4eee94"/>
     <use xlink:href="#m583e0ff98a" x="502.978251" y="116.012389" style="fill: #4eee94; stroke: #4eee94"/>
     <use xlink:href="#m583e0ff98a" x="515.113963" y="91.481416" style="fill: #4eee94; stroke: #4eee94"/>
     <use xlink:href="#m583e0ff98a" x="527.249674" y="98.171681" style="fill: #4eee94; stroke: #4eee94"/>
     <use xlink:href="#m583e0ff98a" x="539.385385" y="95.941593" style="fill: #4eee94; stroke: #4eee94"/>
     <use xlink:href="#m583e0ff98a" x="551.521096" y="108.20708" style="fill: #4eee94; stroke: #4eee94"/>
     <use xlink:href="#m583e0ff98a" x="563.656807" y="90.366372" style="fill: #4eee94; stroke: #4eee94"/>
     <use xlink:href="#m583e0ff98a" x="575.792518" y="78.100885" style="fill: #4eee94; stroke: #4eee94"/>
     <use xlink:href="#m583e0ff98a" x="587.92823" y="114.897345" style="fill: #4eee94; stroke: #4eee94"/>
     <use xlink:href="#m583e0ff98a" x="600.063941" y="85.906195" style="fill: #4eee94; stroke: #4eee94"/>
     <use xlink:href="#m583e0ff98a" x="612.199652" y="114.897345" style="fill: #4eee94; stroke: #4eee94"/>
     <use xlink:href="#m583e0ff98a" x="624.335363" y="105.976991" style="fill: #4eee94; stroke: #4eee94"/>
     <use xlink:href="#m583e0ff98a" x="636.471074" y="109.322124" style="fill: #4eee94; stroke: #4eee94"/>
    </g>
   </g>
   <g id="line2d_51">
    <path d="M 405.892562 263.19823 
L 418.028273 114.897345 
L 430.163984 108.20708 
L 442.299696 76.985841 
L 454.435407 137.19823 
L 466.571118 102.631858 
L 478.706829 82.561062 
L 490.84254 91.481416 
L 502.978251 109.322124 
L 515.113963 101.516814 
L 527.249674 63.60531 
L 539.385385 78.100885 
L 551.521096 61.375221 
L 563.656807 64.720354 
L 575.792518 76.985841 
L 587.92823 62.490265 
L 600.063941 74.755752 
L 612.199652 56.915044 
L 624.335363 58.030088 
L 636.471074 55.8 
" clip-path="url(#p5aa4e59629)" style="fill: none; stroke-dasharray: 5.55,2.4; stroke-dashoffset: 0; stroke: #eec900; stroke-width: 1.5"/>
    <g clip-path="url(#p5aa4e59629)">
     <use xlink:href="#m55b02647a7" x="405.892562" y="263.19823" style="fill: #eec900; stroke: #eec900"/>
     <use xlink:href="#m55b02647a7" x="418.028273" y="114.897345" style="fill: #eec900; stroke: #eec900"/>
     <use xlink:href="#m55b02647a7" x="430.163984" y="108.20708" style="fill: #eec900; stroke: #eec900"/>
     <use xlink:href="#m55b02647a7" x="442.299696" y="76.985841" style="fill: #eec900; stroke: #eec900"/>
     <use xlink:href="#m55b02647a7" x="454.435407" y="137.19823" style="fill: #eec900; stroke: #eec900"/>
     <use xlink:href="#m55b02647a7" x="466.571118" y="102.631858" style="fill: #eec900; stroke: #eec900"/>
     <use xlink:href="#m55b02647a7" x="478.706829" y="82.561062" style="fill: #eec900; stroke: #eec900"/>
     <use xlink:href="#m55b02647a7" x="490.84254" y="91.481416" style="fill: #eec900; stroke: #eec900"/>
     <use xlink:href="#m55b02647a7" x="502.978251" y="109.322124" style="fill: #eec900; stroke: #eec900"/>
     <use xlink:href="#m55b02647a7" x="515.113963" y="101.516814" style="fill: #eec900; stroke: #eec900"/>
     <use xlink:href="#m55b02647a7" x="527.249674" y="63.60531" style="fill: #eec900; stroke: #eec900"/>
     <use xlink:href="#m55b02647a7" x="539.385385" y="78.100885" style="fill: #eec900; stroke: #eec900"/>
     <use xlink:href="#m55b02647a7" x="551.521096" y="61.375221" style="fill: #eec900; stroke: #eec900"/>
     <use xlink:href="#m55b02647a7" x="563.656807" y="64.720354" style="fill: #eec900; stroke: #eec900"/>
     <use xlink:href="#m55b02647a7" x="575.792518" y="76.985841" style="fill: #eec900; stroke: #eec900"/>
     <use xlink:href="#m55b02647a7" x="587.92823" y="62.490265" style="fill: #eec900; stroke: #eec900"/>
     <use xlink:href="#m55b02647a7" x="600.063941" y="74.755752" style="fill: #eec900; stroke: #eec900"/>
     <use xlink:href="#m55b02647a7" x="612.199652" y="56.915044" style="fill: #eec900; stroke: #eec900"/>
     <use xlink:href="#m55b02647a7" x="624.335363" y="58.030088" style="fill: #eec900; stroke: #eec900"/>
     <use xlink:href="#m55b02647a7" x="636.471074" y="55.8" style="fill: #eec900; stroke: #eec900"/>
    </g>
   </g>
   <g id="patch_9">
    <path d="M 394.363636 320.4 
L 394.363636 43.2 
" style="fill: none; stroke: #000000; stroke-width: 0.8; stroke-linejoin: miter; stroke-linecap: square"/>
   </g>
   <g id="patch_10">
    <path d="M 648 320.4 
L 648 43.2 
" style="fill: none; stroke: #000000; stroke-width: 0.8; stroke-linejoin: miter; stroke-linecap: square"/>
   </g>
   <g id="patch_11">
    <path d="M 394.363636 320.4 
L 648 320.4 
" style="fill: none; stroke: #000000; stroke-width: 0.8; stroke-linejoin: miter; stroke-linecap: square"/>
   </g>
   <g id="patch_12">
    <path d="M 394.363636 43.2 
L 648 43.2 
" style="fill: none; stroke: #000000; stroke-width: 0.8; stroke-linejoin: miter; stroke-linecap: square"/>
   </g>
   <g id="text_30">
    <!-- MNIST test Accuracy -->
    <g transform="translate(459.543068 37.2) scale(0.12 -0.12)">
     <use xlink:href="#DejaVuSans-4d"/>
     <use xlink:href="#DejaVuSans-4e" x="86.279297"/>
     <use xlink:href="#DejaVuSans-49" x="161.083984"/>
     <use xlink:href="#DejaVuSans-53" x="190.576172"/>
     <use xlink:href="#DejaVuSans-54" x="254.052734"/>
     <use xlink:href="#DejaVuSans-20" x="315.136719"/>
     <use xlink:href="#DejaVuSans-74" x="346.923828"/>
     <use xlink:href="#DejaVuSans-65" x="386.132812"/>
     <use xlink:href="#DejaVuSans-73" x="447.65625"/>
     <use xlink:href="#DejaVuSans-74" x="499.755859"/>
     <use xlink:href="#DejaVuSans-20" x="538.964844"/>
     <use xlink:href="#DejaVuSans-41" x="570.751953"/>
     <use xlink:href="#DejaVuSans-63" x="637.410156"/>
     <use xlink:href="#DejaVuSans-63" x="692.390625"/>
     <use xlink:href="#DejaVuSans-75" x="747.371094"/>
     <use xlink:href="#DejaVuSans-72" x="810.75"/>
     <use xlink:href="#DejaVuSans-61" x="851.863281"/>
     <use xlink:href="#DejaVuSans-63" x="913.142578"/>
     <use xlink:href="#DejaVuSans-79" x="968.123047"/>
    </g>
   </g>
   <g id="legend_2">
    <g id="patch_13">
     <path d="M 473.975 315.4 
L 641 315.4 
Q 643 315.4 643 313.4 
L 643 269.809375 
Q 643 267.809375 641 267.809375 
L 473.975 267.809375 
Q 471.975 267.809375 471.975 269.809375 
L 471.975 313.4 
Q 471.975 315.4 473.975 315.4 
z
" style="fill: #ffffff; opacity: 0.8; stroke: #cccccc; stroke-linejoin: miter"/>
    </g>
    <g id="line2d_52">
     <path d="M 475.975 275.907812 
L 485.975 275.907812 
L 495.975 275.907812 
" style="fill: none; stroke-dasharray: 5.55,2.4; stroke-dashoffset: 0; stroke: #6495ed; stroke-width: 1.5"/>
     <g>
      <use xlink:href="#m032338ff58" x="485.975" y="275.907812" style="fill: #6495ed; stroke: #6495ed"/>
     </g>
    </g>
    <g id="text_31">
     <!-- ResNet18 -->
     <g transform="translate(503.975 279.407812) scale(0.1 -0.1)">
      <use xlink:href="#DejaVuSans-52"/>
      <use xlink:href="#DejaVuSans-65" x="64.982422"/>
      <use xlink:href="#DejaVuSans-73" x="126.505859"/>
      <use xlink:href="#DejaVuSans-4e" x="178.605469"/>
      <use xlink:href="#DejaVuSans-65" x="253.410156"/>
      <use xlink:href="#DejaVuSans-74" x="314.933594"/>
      <use xlink:href="#DejaVuSans-31" x="354.142578"/>
      <use xlink:href="#DejaVuSans-38" x="417.765625"/>
     </g>
    </g>
    <g id="line2d_53">
     <path d="M 475.975 290.585938 
L 485.975 290.585938 
L 495.975 290.585938 
" style="fill: none; stroke-dasharray: 5.55,2.4; stroke-dashoffset: 0; stroke: #4eee94; stroke-width: 1.5"/>
     <g>
      <use xlink:href="#m583e0ff98a" x="485.975" y="290.585938" style="fill: #4eee94; stroke: #4eee94"/>
     </g>
    </g>
    <g id="text_32">
     <!-- ResNet18_With_Dropout -->
     <g transform="translate(503.975 294.085938) scale(0.1 -0.1)">
      <use xlink:href="#DejaVuSans-52"/>
      <use xlink:href="#DejaVuSans-65" x="64.982422"/>
      <use xlink:href="#DejaVuSans-73" x="126.505859"/>
      <use xlink:href="#DejaVuSans-4e" x="178.605469"/>
      <use xlink:href="#DejaVuSans-65" x="253.410156"/>
      <use xlink:href="#DejaVuSans-74" x="314.933594"/>
      <use xlink:href="#DejaVuSans-31" x="354.142578"/>
      <use xlink:href="#DejaVuSans-38" x="417.765625"/>
      <use xlink:href="#DejaVuSans-5f" x="481.388672"/>
      <use xlink:href="#DejaVuSans-57" x="531.388672"/>
      <use xlink:href="#DejaVuSans-69" x="628.015625"/>
      <use xlink:href="#DejaVuSans-74" x="655.798828"/>
      <use xlink:href="#DejaVuSans-68" x="695.007812"/>
      <use xlink:href="#DejaVuSans-5f" x="758.386719"/>
      <use xlink:href="#DejaVuSans-44" x="808.386719"/>
      <use xlink:href="#DejaVuSans-72" x="885.388672"/>
      <use xlink:href="#DejaVuSans-6f" x="924.251953"/>
      <use xlink:href="#DejaVuSans-70" x="985.433594"/>
      <use xlink:href="#DejaVuSans-6f" x="1048.910156"/>
      <use xlink:href="#DejaVuSans-75" x="1110.091797"/>
      <use xlink:href="#DejaVuSans-74" x="1173.470703"/>
     </g>
    </g>
    <g id="line2d_54">
     <path d="M 475.975 305.542188 
L 485.975 305.542188 
L 495.975 305.542188 
" style="fill: none; stroke-dasharray: 5.55,2.4; stroke-dashoffset: 0; stroke: #eec900; stroke-width: 1.5"/>
     <g>
      <use xlink:href="#m55b02647a7" x="485.975" y="305.542188" style="fill: #eec900; stroke: #eec900"/>
     </g>
    </g>
    <g id="text_33">
     <!-- ResNet_with_Smaller_Conv -->
     <g transform="translate(503.975 309.042188) scale(0.1 -0.1)">
      <use xlink:href="#DejaVuSans-52"/>
      <use xlink:href="#DejaVuSans-65" x="64.982422"/>
      <use xlink:href="#DejaVuSans-73" x="126.505859"/>
      <use xlink:href="#DejaVuSans-4e" x="178.605469"/>
      <use xlink:href="#DejaVuSans-65" x="253.410156"/>
      <use xlink:href="#DejaVuSans-74" x="314.933594"/>
      <use xlink:href="#DejaVuSans-5f" x="354.142578"/>
      <use xlink:href="#DejaVuSans-77" x="404.142578"/>
      <use xlink:href="#DejaVuSans-69" x="485.929688"/>
      <use xlink:href="#DejaVuSans-74" x="513.712891"/>
      <use xlink:href="#DejaVuSans-68" x="552.921875"/>
      <use xlink:href="#DejaVuSans-5f" x="616.300781"/>
      <use xlink:href="#DejaVuSans-53" x="666.300781"/>
      <use xlink:href="#DejaVuSans-6d" x="729.777344"/>
      <use xlink:href="#DejaVuSans-61" x="827.189453"/>
      <use xlink:href="#DejaVuSans-6c" x="888.46875"/>
      <use xlink:href="#DejaVuSans-6c" x="916.251953"/>
      <use xlink:href="#DejaVuSans-65" x="944.035156"/>
      <use xlink:href="#DejaVuSans-72" x="1005.558594"/>
      <use xlink:href="#DejaVuSans-5f" x="1046.671875"/>
      <use xlink:href="#DejaVuSans-43" x="1096.671875"/>
      <use xlink:href="#DejaVuSans-6f" x="1166.496094"/>
      <use xlink:href="#DejaVuSans-6e" x="1227.677734"/>
      <use xlink:href="#DejaVuSans-76" x="1291.056641"/>
     </g>
    </g>
   </g>
  </g>
 </g>
 <defs>
  <clipPath id="pa0bf6ddba8">
   <rect x="90" y="43.2" width="253.636364" height="277.2"/>
  </clipPath>
  <clipPath id="p5aa4e59629">
   <rect x="394.363636" y="43.2" width="253.636364" height="277.2"/>
  </clipPath>
 </defs>
</svg>
